<svg width="100" height="100" viewBox="0 0 100 100" fill="none" xmlns="http://www.w3.org/2000/svg">
<path d="M89.2857 0H10.7143C7.87268 0 5.14746 1.12882 3.13814 3.13814C1.12882 5.14746 0 7.87268 0 10.7143L0 89.2857C0 92.1273 1.12882 94.8525 3.13814 96.8619C5.14746 98.8712 7.87268 100 10.7143 100H89.2857C92.1273 100 94.8525 98.8712 96.8619 96.8619C98.8712 94.8525 100 92.1273 100 89.2857V10.7143C100 7.87268 98.8712 5.14746 96.8619 3.13814C94.8525 1.12882 92.1273 0 89.2857 0V0ZM85.6272 68.6094L82.279 83.1183C82.1089 83.8559 81.6939 84.5142 81.1017 84.9857C80.5094 85.4571 79.7749 85.714 79.0179 85.7143C43.3036 85.7143 14.2857 56.7612 14.2857 20.9821C14.3123 20.2323 14.5788 19.5107 15.0462 18.9237C15.5135 18.3366 16.1569 17.915 16.8817 17.721L31.3906 14.3728C31.6381 14.3204 31.89 14.2913 32.1429 14.2857C32.7903 14.3184 33.4172 14.5238 33.9585 14.8806C34.4998 15.2374 34.9357 15.7326 35.221 16.3147L41.9174 31.9397C42.0814 32.361 42.1728 32.8071 42.1875 33.2589C42.133 34.2501 41.6923 35.1804 40.9598 35.8504L32.5022 42.7701C37.6268 53.6315 46.3685 62.3732 57.2299 67.4978L64.1496 59.0402C64.8196 58.3077 65.7499 57.867 66.7411 57.8125C67.1929 57.827 67.639 57.9184 68.0603 58.0826L83.6853 64.779C84.2677 65.0639 84.7632 65.4997 85.12 66.0411C85.4769 66.5824 85.6821 67.2096 85.7143 67.8571C85.7098 68.1101 85.6807 68.3621 85.6272 68.6094Z" fill="#63B4FF"/>
</svg>
